<svg width="22" height="22" viewBox="0 0 22 22" fill="none" xmlns="http://www.w3.org/2000/svg">
<path d="M19.1595 1H2.84051C1.82566 1 1 2.10237 1 3.4591C1 4.81411 1.82566 5.91653 2.84051 5.91653H19.1595C20.1743 5.91653 21 4.81411 21 3.4591C21 2.10237 20.1743 1 19.1595 1Z" stroke="black" stroke-width="1.5"/>
<path d="M19.1595 8.54172H2.84051C1.82566 8.54172 1 9.64408 1 11.0008C1 12.3558 1.82566 13.4582 2.84051 13.4582H19.1595C20.1743 13.4582 21 12.3558 21 11.0008C21 9.64408 20.1743 8.54172 19.1595 8.54172Z" stroke="black" stroke-width="1.5"/>
<path d="M19.1595 16.0835H2.84051C1.82566 16.0835 1 17.1859 1 18.5426C1 19.8976 1.82566 21 2.84051 21H19.1595C20.1743 21 21 19.8976 21 18.5426C21 17.1859 20.1743 16.0835 19.1595 16.0835Z" stroke="black" stroke-width="1.5"/>
</svg>
