<svg width="20" height="18" viewBox="0 0 20 18" fill="none" xmlns="http://www.w3.org/2000/svg">
<path d="M10 17.7936C9.71527 17.7936 9.44077 17.6904 9.22684 17.5031C8.41888 16.7966 7.63992 16.1327 6.95267 15.547L6.94916 15.544C4.93423 13.8269 3.19427 12.3441 1.98364 10.8833C0.63034 9.25034 0 7.70203 0 6.01059C0 4.36722 0.563507 2.8511 1.58661 1.74133C2.62192 0.618439 4.04251 0 5.58716 0C6.74164 0 7.79892 0.36499 8.72955 1.08475C9.19922 1.44806 9.62494 1.8927 10 2.41135C10.3752 1.8927 10.8008 1.44806 11.2706 1.08475C12.2012 0.36499 13.2585 0 14.413 0C15.9575 0 17.3782 0.618439 18.4135 1.74133C19.4366 2.8511 20 4.36722 20 6.01059C20 7.70203 19.3698 9.25034 18.0165 10.8832C16.8059 12.3441 15.0661 13.8268 13.0515 15.5437C12.363 16.1302 11.5828 16.7952 10.773 17.5034C10.5592 17.6904 10.2846 17.7936 10 17.7936Z" fill="#000000"/>
</svg>
