<svg width="20" height="20" viewBox="0 0 20 20" fill="none" xmlns="http://www.w3.org/2000/svg">
<path d="M6.58252 11.2H2.2045C0.98895 11.2 0 12.1904 0 13.4078V17.7922C0 19.0096 0.98895 20 2.2045 20H6.58252C7.79808 20 8.78703 19.0096 8.78703 17.7922V13.4078C8.78703 12.1904 7.79808 11.2 6.58252 11.2Z" fill="black"/>
<path d="M6.58252 11.2H2.2045C0.98895 11.2 0 12.1904 0 13.4078V17.7922C0 19.0096 0.98895 20 2.2045 20H6.58252C7.79808 20 8.78703 19.0096 8.78703 17.7922V13.4078C8.78703 12.1904 7.79808 11.2 6.58252 11.2Z" fill="black"/>
<path d="M17.7955 11.2H13.4175C12.2019 11.2 11.213 12.1904 11.213 13.4078V17.7922C11.213 19.0096 12.2019 20 13.4175 20H17.7955C19.0111 20 20 19.0096 20 17.7922V13.4078C20 12.1904 19.0111 11.2 17.7955 11.2Z" fill="black"/>
<path d="M17.7955 11.2H13.4175C12.2019 11.2 11.213 12.1904 11.213 13.4078V17.7922C11.213 19.0096 12.2019 20 13.4175 20H17.7955C19.0111 20 20 19.0096 20 17.7922V13.4078C20 12.1904 19.0111 11.2 17.7955 11.2Z" fill="black"/>
<path d="M6.58252 1.45322e-05H2.2045C0.98895 1.45322e-05 0 0.990424 0 2.20777V6.59225C0 7.8096 0.98895 8.80001 2.2045 8.80001H6.58252C7.79808 8.80001 8.78703 7.8096 8.78703 6.59225V2.20777C8.78703 0.990424 7.79808 1.45322e-05 6.58252 1.45322e-05Z" fill="black"/>
<path d="M6.58252 1.45322e-05H2.2045C0.98895 1.45322e-05 0 0.990424 0 2.20777V6.59225C0 7.8096 0.98895 8.80001 2.2045 8.80001H6.58252C7.79808 8.80001 8.78703 7.8096 8.78703 6.59225V2.20777C8.78703 0.990424 7.79808 1.45322e-05 6.58252 1.45322e-05Z" fill="black"/>
<path d="M17.7955 -9.08261e-07L13.4175 1.45322e-05C12.2019 1.45322e-05 11.213 0.990409 11.213 2.20775V6.59224C11.213 7.80958 12.2019 8.80001 13.4175 8.80001L17.7955 8.79999C19.0111 8.79999 20 7.80958 20 6.59224V2.20775C20 0.990409 19.0111 -9.08261e-07 17.7955 -9.08261e-07Z" fill="black"/>
<path d="M17.7955 -9.08261e-07L13.4175 1.45322e-05C12.2019 1.45322e-05 11.213 0.990409 11.213 2.20775V6.59224C11.213 7.80958 12.2019 8.80001 13.4175 8.80001L17.7955 8.79999C19.0111 8.79999 20 7.80958 20 6.59224V2.20775C20 0.990409 19.0111 -9.08261e-07 17.7955 -9.08261e-07Z" fill="black"/>
</svg>
