<svg width="100" height="100" viewBox="0 0 100 100" fill="none" xmlns="http://www.w3.org/2000/svg">
<path d="M84.375 3.51563H15.625C7.00912 3.51563 0 10.5247 0 19.1406V73.8281C0 82.444 7.00912 89.4531 15.625 89.4531H68.9453C71.1029 89.4531 72.8516 87.7045 72.8516 85.5469C72.8516 83.3893 71.1029 81.6406 68.9453 81.6406H54.5578L45.5765 69.989L74.0379 33.7883L93.1976 54.9644C94.281 56.163 95.9908 56.5697 97.4983 55.9891C99.0051 55.4077 100 53.9589 100 52.3438V19.1406C100 10.5247 92.9909 3.51562 84.375 3.51562V3.51563ZM92.1875 42.2043L76.725 25.1137C75.9529 24.2599 74.8421 23.7885 73.6931 23.8304C72.5433 23.8708 71.4691 24.4156 70.7573 25.3204L40.6563 63.6063L30.4375 50.3494C29.6982 49.3904 28.5553 48.8281 27.3438 48.8281C27.343 48.8281 27.3422 48.8281 27.3415 48.8281C26.1299 48.8289 24.9863 49.3919 24.2477 50.3525L15.6509 61.528C14.3356 63.2385 14.6553 65.6906 16.3651 67.0059C18.0756 68.322 20.5276 68.0016 21.8437 66.2918L27.3468 59.137L44.6938 81.6406H15.625C11.3174 81.6406 7.8125 78.1357 7.8125 73.8281V19.1406C7.8125 14.8331 11.3174 11.3281 15.625 11.3281H84.375C88.6826 11.3281 92.1875 14.8331 92.1875 19.1406V42.2043Z" fill="black"/>
<path d="M27.3438 17.5781C20.8817 17.5781 15.625 22.8348 15.625 29.2969C15.625 35.759 20.8817 41.0156 27.3438 41.0156C33.8058 41.0156 39.0625 35.759 39.0625 29.2969C39.0625 22.8348 33.8058 17.5781 27.3438 17.5781ZM27.3438 33.2031C25.19 33.2031 23.4375 31.4507 23.4375 29.2969C23.4375 27.1431 25.19 25.3906 27.3438 25.3906C29.4975 25.3906 31.25 27.1431 31.25 29.2969C31.25 31.4507 29.4975 33.2031 27.3438 33.2031Z" fill="black"/>
<path d="M91.4995 62.6839C91.4881 62.6724 91.4766 62.6602 91.4652 62.6488C89.6189 60.7895 87.163 59.7656 84.5491 59.7656C81.9429 59.7656 79.4939 60.7834 77.6499 62.632L70.1082 70.0706C68.5724 71.5851 68.5556 74.0585 70.0708 75.5943C71.5853 77.1301 74.0587 77.1477 75.5945 75.6325L80.6429 70.6535V92.5781C80.6429 94.7357 82.3915 96.4844 84.5491 96.4844C86.7067 96.4844 88.4554 94.7357 88.4554 92.5781V70.7726L93.2871 75.7637C94.0531 76.5556 95.0731 76.9531 96.0939 76.9531C97.0728 76.9531 98.0524 76.5877 98.8108 75.8537C100.361 74.353 100.401 71.8803 98.9 70.33L91.4995 62.6839Z" fill="black"/>
</svg>
