<svg width="21" height="21" viewBox="0 0 21 21" fill="none" xmlns="http://www.w3.org/2000/svg">
<path d="M19.0675 0H1.93253C0.866947 0 0 1.15749 0 2.58206C0 4.00482 0.866947 5.16236 1.93253 5.16236H19.0675C20.1331 5.16236 21 4.00482 21 2.58206C21 1.15749 20.1331 0 19.0675 0Z" fill="black"/>
<path d="M19.0675 7.9188H1.93253C0.866947 7.9188 0 9.07629 0 10.5009C0 11.9236 0.866947 13.0812 1.93253 13.0812H19.0675C20.1331 13.0812 21 11.9236 21 10.5009C21 9.07629 20.1331 7.9188 19.0675 7.9188Z" fill="black"/>
<path d="M19.0675 15.8376H1.93253C0.866947 15.8376 0 16.9952 0 18.4197C0 19.8425 0.866947 21 1.93253 21H19.0675C20.1331 21 21 19.8425 21 18.4197C21 16.9952 20.1331 15.8376 19.0675 15.8376Z" fill="black"/>
</svg>
