<svg width="50" height="50" viewBox="0 0 50 50" fill="none" xmlns="http://www.w3.org/2000/svg">
<path d="M46.2025 16.8065C46.3583 15.9711 46.4372 15.1232 46.4383 14.2734C46.4287 6.38096 40.0247 -0.00940967 32.1342 1.04013e-05C26.1277 0.00723245 20.7672 3.7716 18.72 9.41998C15.0545 7.96049 10.9002 9.74947 9.44099 13.4159C9.31469 13.7332 9.21131 14.0592 9.13168 14.3913C3.27893 15.2668 -0.756002 20.7224 0.119315 26.5766C0.904327 31.8271 5.4137 35.7115 10.7211 35.7093H19.6503C20.6367 35.7093 21.4362 34.9095 21.4362 33.9229C21.4362 32.9363 20.6367 32.1366 19.6503 32.1366H10.7211C6.7758 32.1366 3.57757 28.9375 3.57757 24.9912C3.57757 21.045 6.7758 17.8459 10.7211 17.8459C11.7074 17.8459 12.507 17.0462 12.507 16.0596C12.5102 14.0865 14.1119 12.4896 16.0845 12.4928C17.0174 12.4944 17.9127 12.8609 18.5788 13.514C19.2813 14.2065 20.412 14.1983 21.1043 13.4956C21.3642 13.2318 21.5357 12.8937 21.5951 12.528C22.5645 6.69454 28.078 2.75172 33.9099 3.72136C39.7418 4.691 43.6836 10.2059 42.7142 16.0394C42.6565 16.3872 42.5814 16.7319 42.4897 17.0723C42.2844 17.818 42.5821 18.611 43.2273 19.0372C46.5147 21.219 47.4113 25.6535 45.23 28.9417C43.9097 30.932 41.6827 32.1307 39.2948 32.1364H33.9372C32.9509 32.1364 32.1513 32.9361 32.1513 33.9227C32.1513 34.9093 32.9509 35.7091 33.9372 35.7091H39.2948C45.2126 35.7035 50.0055 30.9004 49.9998 24.981C49.9969 21.8305 48.6081 18.8406 46.2025 16.8065Z" fill="black"/>
<path d="M36.9855 25.5149L28.0563 16.5833C27.89 16.4166 27.692 16.2848 27.4741 16.1958C27.0372 16.0151 26.5465 16.0151 26.1096 16.1958C25.8917 16.2849 25.6938 16.4167 25.5274 16.5833L16.5982 25.5149C15.913 26.2246 15.9326 27.3554 16.6421 28.0408C17.3342 28.7093 18.4314 28.7093 19.1233 28.0408L25.0078 22.1584V48.2136C25.0078 49.2002 25.8073 50 26.7937 50C27.78 50 28.5796 49.2002 28.5796 48.2136V22.1585L34.4605 28.0409C35.1699 28.7262 36.3005 28.7066 36.9856 27.9969C37.654 27.3046 37.654 26.2071 36.9855 25.5149Z" fill="black"/>
</svg>
